<svg width="16" height="14" viewBox="0 0 16 14" fill="none" xmlns="http://www.w3.org/2000/svg">
<path d="M4.625 0.625C2.35342 0.625 0.5 2.47842 0.5 4.75C0.5 6.28606 1.65787 7.73234 3.06934 9.21558C4.48081 10.6988 6.21814 12.2011 7.6023 13.5852C7.70779 13.6907 7.85084 13.7499 8 13.7499C8.14916 13.7499 8.29221 13.6907 8.39771 13.5852C9.78186 12.2011 11.5192 10.6988 12.9307 9.21558C14.3421 7.73234 15.5 6.28606 15.5 4.75C15.5 2.47842 13.6466 0.625 11.375 0.625C10.0713 0.625 8.93631 1.32493 8 2.51392C7.06369 1.32493 5.92866 0.625 4.625 0.625ZM4.625 1.75C5.72321 1.75 6.63736 2.3344 7.52466 3.73779C7.5754 3.81796 7.64558 3.88398 7.72869 3.92974C7.8118 3.97549 7.90513 3.99948 8 3.99948C8.09487 3.99948 8.1882 3.97549 8.27131 3.92974C8.35442 3.88398 8.4246 3.81796 8.47534 3.73779C9.36264 2.3344 10.2768 1.75 11.375 1.75C13.0387 1.75 14.375 3.08633 14.375 4.75C14.375 5.65144 13.4704 7.01766 12.1162 8.44067C10.8813 9.73833 9.34637 11.094 8 12.4067C6.65363 11.094 5.11865 9.73833 3.88379 8.44067C2.52963 7.01766 1.625 5.65144 1.625 4.75C1.625 3.08633 2.96133 1.75 4.625 1.75Z" fill="black"/>
</svg>
